<svg version="1.1" xmlns="http://www.w3.org/2000/svg" xmlns:xlink="http://www.w3.org/1999/xlink" width="20" height="20" viewBox="0 0 20 20">
<g id="DotPlot">
<path id="Фігура-10" d="M1.000,18.000 L19.000,18.000 L19.000,19.000 L1.000,19.000 L1.000,18.000 z" fill="#979797" />
<path id="Фігура-77" d="M14.508,2.000 C15.341,2.000 16.016,2.675 16.016,3.508 C16.016,4.341 15.341,5.016 14.508,5.016 C13.675,5.016 13.000,4.341 13.000,3.508 C13.000,2.675 13.675,2.000 14.508,2.000 z" fill="#F5A623" />
<path id="Фігура-77-копія" d="M14.508,6.000 C15.341,6.000 16.016,6.675 16.016,7.508 C16.016,8.341 15.341,9.016 14.508,9.016 C13.675,9.016 13.000,8.341 13.000,7.508 C13.000,6.675 13.675,6.000 14.508,6.000 z" fill="#F5A623" />
<path id="Фігура-77-копія-" d="M14.508,10.000 C15.341,10.000 16.016,10.675 16.016,11.508 C16.016,12.341 15.341,13.016 14.508,13.016 C13.675,13.016 13.000,12.341 13.000,11.508 C13.000,10.675 13.675,10.000 14.508,10.000 z" fill="#F5A623" />
<path id="Фігура-77-копія-" d="M14.508,14.000 C15.341,14.000 16.016,14.675 16.016,15.508 C16.016,16.341 15.341,17.016 14.508,17.016 C13.675,17.016 13.000,16.341 13.000,15.508 C13.000,14.675 13.675,14.000 14.508,14.000 z" fill="#F5A623" />
<path id="Фігура-77-копія-" d="M9.508,14.000 C10.341,14.000 11.016,14.675 11.016,15.508 C11.016,16.341 10.341,17.016 9.508,17.016 C8.675,17.016 8.000,16.341 8.000,15.508 C8.000,14.675 8.675,14.000 9.508,14.000 z" fill="#F5A623" />
<path id="Фігура-77-копія-" d="M9.508,10.000 C10.341,10.000 11.016,10.675 11.016,11.508 C11.016,12.341 10.341,13.016 9.508,13.016 C8.675,13.016 8.000,12.341 8.000,11.508 C8.000,10.675 8.675,10.000 9.508,10.000 z" fill="#F5A623" />
<path id="Фігура-77-копія-" d="M4.508,10.000 C5.341,10.000 6.016,10.675 6.016,11.508 C6.016,12.341 5.341,13.016 4.508,13.016 C3.675,13.016 3.000,12.341 3.000,11.508 C3.000,10.675 3.675,10.000 4.508,10.000 z" fill="#F5A623" />
<path id="Фігура-77-копія-" d="M4.508,14.000 C5.341,14.000 6.016,14.675 6.016,15.508 C6.016,16.341 5.341,17.016 4.508,17.016 C3.675,17.016 3.000,16.341 3.000,15.508 C3.000,14.675 3.675,14.000 4.508,14.000 z" fill="#F5A623" />
<path id="Фігура-77-копія-" d="M4.508,6.000 C5.341,6.000 6.016,6.675 6.016,7.508 C6.016,8.341 5.341,9.016 4.508,9.016 C3.675,9.016 3.000,8.341 3.000,7.508 C3.000,6.675 3.675,6.000 4.508,6.000 z" fill="#F5A623" />
</g>
</svg>
